# xmcd
#
# Track frame offsets:
#	150
#	13994
#	30380
#	43756
#	59377
#	71137
#	81797
#	90949
#	103482
#	113606
#	124868
#	133886
#	145889
#	157500
#
# Disc length: 2258 seconds
#
# Revision: 0
# Processed by: cddbd v1.5.2PL0 Copyright (c) Steve Scherf et al.
# Submitted via: EasyCDDAExtractor 16.0.6.1
#
DISCID=bb08d00e
DTITLE=Πρωτοψάλτη Άλκηστις - Μεγάλες επιτυχίες-Ά. Πρωτοψάλτη
DYEAR=2009
DGENRE=Ποικίλη
TTITLE0=Πρωτοψάλτη Άλκηστις - Τι τραγούδι να σού γράψω [Ηλ. Ανδριόπουλος-Μιχ. 
TTITLE0=Μπουρμπούλης]
TTITLE1=Καλογιάννης Αντώνης-Πρωτοψάλτη Άλκηστις - Θα σε ξανάβρω στους μπαξέδες
TTITLE1=[Ηλ. Ανδριόπουλος-Μ. Ελευθερίου]
TTITLE2=Πρωτοψάλτη Άλκηστις - Την πόρτα ανοίγω το βράδυ [Μ. Θεοδωράκης-Τ. Λειβ
TTITLE2=αδίτης]
TTITLE3=Πρωτοψάλτη Άλκηστις - Σε βρήκα στη Μονεμβασιά [Λ. Κηλαηδόνης-Μ. Ελευθε
TTITLE3=ρίου]
TTITLE4=Πρωτοψάλτη Άλκηστις - Δειλινά στη Σπάρτη [Ηλ. Ανδριόπουλος-Μιχ. Μπουρμ
TTITLE4=πούλης]
TTITLE5=Πρωτοψάλτη Άλκηστις - Δρόμοι που χάθηκα [Μ. Θεοδωράκης-Τ. Λειβαδίτης]
TTITLE6=Πρωτοψάλτη Άλκηστις - Ένα παλληκάρι [δημοτικό, διασκ. Τάσος Καρακατσάν
TTITLE6=ης]
TTITLE7=Πρωτοψάλτη Άλκηστις - Στάθηκε απόψε το φεγγάρι [Γ. Γιαννουλάτος-Μιχ. Μ
TTITLE7=πουρμπούλης]
TTITLE8=Πρωτοψάλτη Άλκηστις - Σε λίγο θα νυχτώσει [Γ. Γιαννουλάτος-Ανδρέας Μάλ
TTITLE8=λιαρης]
TTITLE9=Πρωτοψάλτη Άλκηστις - Του κουρσάρου [Μιχ. Τερζής-Κυρ. Κάσσης]
TTITLE10=Πρωτοψάλτη Άλκηστις - Φεύγω πρωΐ για τη δουλειά [Γ. Γιαννουλάτος-Μιχ.
TTITLE10=Μπουρμπούλης]
TTITLE11=Πρωτοψάλτη Άλκηστις-χορωδία - Μισεύεις Γιώργη [Μιχ. Τερζής-Κυρ. Κάσση
TTITLE11=ς]
TTITLE12=Πρωτοψάλτη Άλκηστις - Σήμερα μέρα σκοτεινή [Μιχ. Τερζής-Κυρ. Κάσσης]
TTITLE13=Πρωτοψάλτη Άλκηστις - Τετάρτη βράδυ [Χρ. Λεττονός-Λάζ. Ανδρέου]
EXTD=
EXTT0=
EXTT1=
EXTT2=
EXTT3=
EXTT4=
EXTT5=
EXTT6=
EXTT7=
EXTT8=
EXTT9=
EXTT10=
EXTT11=
EXTT12=
EXTT13=
PLAYORDER=
